<svg width="29" height="27" viewBox="311 92 29 27" xmlns="http://www.w3.org/2000/svg"><path d="M315.614 111.535C312.8 109.518 311 106.444 311 103c0-6.075 5.596-11 12.5-11s12.5 4.925 12.5 11-5.596 11-12.5 11c-1.547 0-3.028-.247-4.396-.7L314 116.74l1.614-5.205z" fill="#C8C8C8" fill-rule="evenodd"/><path d="M336.785 114.377c1.352-.968 2.215-2.444 2.215-4.097 0-2.916-2.686-5.28-6-5.28s-6 2.364-6 5.28c0 2.916 2.686 5.28 6 5.28.743 0 1.454-.119 2.11-.336l2.45 1.651-.775-2.498z" stroke="#2B2E37" fill="#C8C8C8" fill-rule="evenodd"/></svg>