<svg width="23" height="23" xmlns="http://www.w3.org/2000/svg" xmlns:xlink="http://www.w3.org/1999/xlink"><title>X</title><defs><path d="M11.127 7.22L4.491.583a2.63 2.63 0 0 0-3.71 0A2.626 2.626 0 0 0 .78 4.296l6.635 6.636L.78 17.567a2.626 2.626 0 0 0 .001 3.71 2.63 2.63 0 0 0 3.71.001l6.636-6.635 6.636 6.635a2.63 2.63 0 0 0 3.71-.001 2.626 2.626 0 0 0 .002-3.71l-6.636-6.636 6.636-6.636a2.626 2.626 0 0 0-.002-3.71 2.63 2.63 0 0 0-3.71-.001l-6.636 6.635z" id="a"/><mask id="b" x="0" y="0" width="22.254" height="21.862" fill="#fff"><use xlink:href="#a"/></mask></defs><use mask="url(#b)" xlink:href="#a" transform="translate(.69 .308)" stroke="#04023A" stroke-width="2" fill="#130F6F" fill-rule="evenodd"/></svg>