<svg width="24" height="24" viewBox="0 0 24 24" xmlns="http://www.w3.org/2000/svg" xmlns:xlink="http://www.w3.org/1999/xlink"><title>Tinder X</title><defs><linearGradient x1="50%" y1="100%" x2="50%" y2="0%" id="b"><stop stop-color="#F97560" offset="0%"/><stop stop-color="#FB357B" offset="100%"/></linearGradient><path d="M12 7.925L4.92.845A2.886 2.886 0 0 0 .841.841a2.885 2.885 0 0 0 .003 4.077l7.08 7.08-7.08 7.081a2.885 2.885 0 0 0-.003 4.077 2.886 2.886 0 0 0 4.077-.002L12 16.075l7.08 7.08a2.886 2.886 0 0 0 4.078.002 2.885 2.885 0 0 0-.003-4.077L16.075 12l7.08-7.081a2.885 2.885 0 0 0 .003-4.077 2.886 2.886 0 0 0-4.077.002L12 7.925z" id="a"/><mask id="c" x="0" y="0" width="24" height="23.999" fill="#fff"><use xlink:href="#a"/></mask></defs><use mask="url(#c)" xlink:href="#a" stroke="#D77064" stroke-width="2" fill="url(#b)" fill-rule="evenodd"/></svg>