<svg width="27" height="23" xmlns="http://www.w3.org/2000/svg" xmlns:xlink="http://www.w3.org/1999/xlink"><title>Heart</title><defs><path d="M13.016 4.278l1.362-1.362a6.764 6.764 0 0 1 9.566 9.566l-1.84 1.84a.99.99 0 0 1-.188.263l-8.16 8.159a.996.996 0 0 1-1.404.002l-1.364-1.364c-.33-.18-.64-.409-.919-.688l-1.952-1.951c-.36-.36-.67-.751-.933-1.165L2.015 12.41a6.764 6.764 0 1 1 9.56-9.572l1.441 1.441z" id="a"/><mask id="b" x="0" y="0" width="25.886" height="22.175" fill="#fff"><use xlink:href="#a"/></mask></defs><use mask="url(#b)" xlink:href="#a" transform="translate(.836 -.781)" stroke="#04023A" stroke-width="2" fill="#130F6F" fill-rule="evenodd"/></svg>