<svg width="28" height="25" viewBox="0 0 28 25" xmlns="http://www.w3.org/2000/svg" xmlns:xlink="http://www.w3.org/1999/xlink"><title>Tinder Heart</title><defs><linearGradient x1="50%" y1="100%" x2="50%" y2="28.021%" id="b"><stop stop-color="#6FDACB" offset="0%"/><stop stop-color="#3FDFAF" offset="100%"/></linearGradient><path d="M14.038 3.54l1.283-1.283c2.892-2.893 7.598-2.897 10.498.003 2.894 2.894 2.9 7.6.003 10.498l-8.99 8.99a4.008 4.008 0 0 1-.601.494l-1.541 1.541a.998.998 0 0 1-1.41.001l-1.637-1.637a4.023 4.023 0 0 1-.466-.4l-2.423-2.423c-.2-.2-.385-.408-.558-.623l-6.019-6.02c-2.903-2.903-2.9-7.613-.006-10.507 2.9-2.9 7.605-2.896 10.498-.003l1.369 1.369z" id="a"/><mask id="c" x="0" y="0" width="27.992" height="24.075" fill="#fff"><use xlink:href="#a"/></mask></defs><use mask="url(#c)" xlink:href="#a" stroke="#64C7A9" stroke-width="2" fill="url(#b)" fill-rule="evenodd"/></svg>